<svg width="42" height="40" viewBox="0 0 42 40" fill="none" xmlns="http://www.w3.org/2000/svg">
<ellipse cx="20.8105" cy="20" rx="20.8105" ry="20" fill="#FDF5E7"/>
<path fill-rule="evenodd" clip-rule="evenodd" d="M31.8416 11.062C31.746 10.7133 31.4626 10.4409 31.0998 10.3491C26.7438 9.26175 22.1249 10.6702 19.2181 13.9721L18.0579 15.296L15.3476 14.6675C13.985 14.211 12.4809 14.7903 11.8236 16.0249L9.53424 19.9248C9.37155 20.2018 9.35574 20.5367 9.49166 20.8268C9.62757 21.1168 9.89899 21.3274 10.2227 21.394L13.42 22.0527C13.1491 22.845 12.9557 23.6599 12.8423 24.4867C12.8006 24.7946 12.91 25.1036 13.1385 25.3232L16.3642 28.4233C16.5593 28.6109 16.8239 28.7163 17.0999 28.7163C17.1298 28.7163 17.1598 28.7148 17.1903 28.7124C18.0699 28.6364 18.9388 28.4721 19.7829 28.2224L20.4526 31.2255C20.522 31.5365 20.7412 31.7972 21.0429 31.9278C21.3447 32.0584 21.6931 32.0433 21.9814 31.8872L26.045 29.6845C27.2184 28.9993 27.7968 27.6639 27.4757 26.3808L26.7799 23.6218L28.0671 22.4843C31.5165 19.6979 32.9861 15.2505 31.8416 11.062ZM12.0413 19.7231L13.6605 16.9633C13.8693 16.5744 14.3578 16.4096 14.7737 16.5879L16.5607 17.0041L15.8844 17.7758C15.2432 18.5144 14.6886 19.3186 14.2307 20.174L12.0413 19.7231ZM22.1914 29.477L25.0172 27.9453C25.3884 27.6975 25.5606 27.2543 25.4491 26.8334L25.0293 25.1688L24.2556 25.8525C23.4943 26.4937 22.6504 27.0381 21.7444 27.4723L22.1914 29.477ZM26.6965 20.98L22.8626 24.3662C21.345 25.6275 19.4732 26.4292 17.4826 26.6704L14.9809 24.2661C15.3169 22.3481 16.1793 20.551 17.4791 19.0601L19.2254 17.0674C19.2545 17.0382 19.2817 17.0072 19.3067 16.9747L20.7998 15.271C23.0473 12.7198 26.5491 11.5279 29.9664 12.1509C30.6305 15.4466 29.3779 18.8287 26.6965 20.98ZM24.1756 16.3162C24.1756 15.4878 24.8744 14.8162 25.7364 14.8162L25.7363 14.8162C26.1503 14.8162 26.5473 14.9742 26.84 15.2555C27.1328 15.5368 27.2972 15.9184 27.2972 16.3162C27.2972 17.1446 26.5984 17.8162 25.7364 17.8162C24.8744 17.8162 24.1756 17.1446 24.1756 16.3162Z" fill="#EC9E0C"/>
</svg>
