<svg width="40" height="40" viewBox="0 0 40 40" fill="none" xmlns="http://www.w3.org/2000/svg">
<ellipse cx="19.5506" cy="20" rx="19.5506" ry="20" fill="#FDF5E7"/>
<path d="M17.9245 31.0792C17.601 30.9468 17.2457 30.8621 16.9607 30.6718C16.3748 30.2803 16.1247 29.684 16.1165 28.9862C16.1115 28.5643 16.1179 28.142 16.1152 27.7201C16.1038 26.1664 15.5818 24.8111 14.4939 23.6982C13.7444 22.9315 13.0983 22.105 12.6619 21.1163C11.1852 17.7709 12.4362 13.7249 15.5501 11.8087C19.7692 9.21225 25.276 11.2885 26.6539 16.044C27.4329 18.7324 26.8089 21.1525 24.9416 23.2374C24.4141 23.826 23.8341 24.3657 23.4621 25.0807C23.0928 25.7903 22.9016 26.5366 22.898 27.3354C22.8948 27.9979 22.917 28.664 22.8595 29.3224C22.7824 30.2024 22.0747 30.8974 21.1951 31.0429C21.1594 31.0488 21.1254 31.0665 21.0905 31.0787C20.0347 31.0792 18.9798 31.0792 17.9245 31.0792ZM21.5418 26.9566C21.5563 26.8556 21.5726 26.774 21.5794 26.692C21.6456 25.8841 21.9025 25.136 22.2763 24.4214C22.6945 23.6221 23.3072 22.9814 23.927 22.3415C26.0132 20.1887 26.1759 16.7305 24.3104 14.3779C22.4539 12.0366 19.1842 11.3655 16.5511 12.7856C14.3561 13.9692 13.0801 16.537 13.4567 19.0052C13.661 20.3433 14.2256 21.501 15.1894 22.4539C15.9484 23.2043 16.5855 24.0412 16.9539 25.0472C17.1773 25.6575 17.3187 26.2978 17.504 26.9498C17.9023 26.9498 18.3568 26.9498 18.8126 26.9498C18.8194 26.9154 18.8267 26.8941 18.8271 26.8728C18.828 25.8782 18.8307 24.8836 18.8239 23.889C18.8235 23.8002 18.7755 23.7018 18.7243 23.6243C17.9798 22.501 17.2339 21.3782 16.4799 20.2608C16.3381 20.0501 16.1709 19.8534 15.996 19.669C15.6534 19.3088 15.2887 18.9694 14.9479 18.6073C14.6842 18.3273 14.6987 17.9317 14.9565 17.6703C15.2143 17.4088 15.6036 17.3984 15.8945 17.6494C15.991 17.7328 16.0807 17.8257 16.1691 17.9181C16.3698 18.1284 16.5678 18.3414 16.7867 18.5738C17.0758 18.2757 17.3191 18.0192 17.5688 17.7682C17.9748 17.3603 18.3264 17.3617 18.7347 17.77C18.9884 18.0237 19.2395 18.2806 19.5091 18.5543C19.7877 18.2702 20.0379 18.0106 20.293 17.7555C20.6809 17.368 21.0424 17.3658 21.4276 17.75C21.6877 18.0092 21.9423 18.2729 22.2296 18.5652C22.5359 18.248 22.8087 17.9471 23.1014 17.6671C23.3896 17.3916 23.7906 17.4025 24.0553 17.6676C24.3203 17.9331 24.3267 18.3314 24.0539 18.6218C23.7911 18.9019 23.5002 19.1565 23.2451 19.4429C22.9365 19.79 22.6252 20.1403 22.3624 20.5222C21.6623 21.5395 20.9849 22.5722 20.3066 23.6039C20.2377 23.7091 20.1919 23.8504 20.1906 23.9755C20.1811 24.8949 20.1851 25.8138 20.186 26.7332C20.186 26.8057 20.1924 26.8778 20.196 26.9557C20.6514 26.9566 21.0864 26.9566 21.5418 26.9566ZM17.4782 28.3314C17.4782 28.6042 17.4609 28.867 17.4827 29.1266C17.5103 29.4561 17.784 29.713 18.1198 29.7166C19.0451 29.7266 19.9708 29.7266 20.8961 29.7166C21.2318 29.713 21.5046 29.4552 21.5323 29.1257C21.554 28.8661 21.5368 28.6037 21.5368 28.3319C20.1833 28.3314 18.8466 28.3314 17.4782 28.3314ZM20.8218 19.1248C20.5766 19.3772 20.3279 19.6391 20.0728 19.8942C19.6871 20.2798 19.3265 20.2798 18.9409 19.8929C18.6826 19.6332 18.4315 19.3663 18.142 19.0654C18.0011 19.2259 17.9014 19.3591 17.7808 19.4701C17.6789 19.5643 17.6934 19.6328 17.7632 19.7365C18.3174 20.5599 18.8661 21.3873 19.4171 22.2129C19.4406 22.2482 19.4696 22.2799 19.5086 22.3293C19.5634 22.2541 19.6083 22.197 19.6486 22.1363C20.1076 21.4484 20.5662 20.7597 21.0252 20.0714C21.3728 19.5494 21.3728 19.5494 20.8902 19.142C20.8848 19.1384 20.8761 19.1384 20.8218 19.1248Z" fill="#EC9E0C"/>
<path d="M7.92969 17.9639C8.10958 17.5733 8.41906 17.4356 8.83911 17.4619C9.19844 17.4841 9.56094 17.4628 9.92162 17.4677C10.3417 17.4732 10.6416 17.7587 10.6416 18.1452C10.6416 18.5317 10.3417 18.8172 9.92162 18.8226C9.56094 18.8271 9.19844 18.8058 8.83911 18.8285C8.41906 18.8548 8.11003 18.717 7.92969 18.3264C7.92969 18.2054 7.92969 18.0844 7.92969 17.9639Z" fill="#EC9E0C"/>
<path d="M15.4356 9.7424C15.4333 10.0686 15.2503 10.3201 14.9752 10.4157C14.7101 10.5077 14.3984 10.4456 14.247 10.2082C13.9616 9.75962 13.6906 9.29879 13.4514 8.82391C13.3032 8.52984 13.4627 8.17459 13.75 8.01373C14.0323 7.85604 14.4084 7.89591 14.5833 8.16416C14.8773 8.61593 15.1306 9.09443 15.3948 9.56477C15.4302 9.62685 15.4288 9.70932 15.4356 9.7424Z" fill="#EC9E0C"/>
<path d="M25.637 8.61004C25.5867 8.741 25.55 8.87965 25.4829 9.00154C25.2881 9.35679 25.0842 9.70751 24.878 10.0564C24.6523 10.4384 24.2663 10.5594 23.9219 10.3636C23.5802 10.1697 23.4851 9.76823 23.6999 9.3867C23.9169 9.00064 24.1349 8.61458 24.3682 8.23848C24.5386 7.96389 24.8408 7.86601 25.1331 7.9589C25.4199 8.05043 25.6102 8.306 25.637 8.61004Z" fill="#EC9E0C"/>
<path d="M29.7293 18.8226C29.5031 18.8226 29.277 18.8289 29.0514 18.8212C28.6626 18.8081 28.374 18.5167 28.373 18.1465C28.3721 17.7763 28.6603 17.4782 29.0487 17.47C29.5004 17.4605 29.9531 17.4609 30.4049 17.47C30.7936 17.4777 31.0823 17.7736 31.0832 18.1438C31.0841 18.514 30.7959 18.8076 30.4076 18.8212C30.1815 18.8289 29.9554 18.8221 29.7293 18.8226Z" fill="#EC9E0C"/>
<path d="M27.0598 13.3112C27.0694 13.134 27.1758 12.9419 27.3838 12.8182C27.7771 12.5844 28.1714 12.3501 28.5737 12.1322C28.9186 11.9455 29.3096 12.061 29.4931 12.3809C29.6789 12.7054 29.5833 13.0946 29.2453 13.3012C28.8547 13.54 28.46 13.7739 28.0545 13.9855C27.5787 14.2347 27.0458 13.9003 27.0598 13.3112Z" fill="#EC9E0C"/>
<path d="M11.9569 13.4104C11.9478 13.8921 11.4475 14.2261 11.0112 14.0086C10.5621 13.7847 10.1285 13.5251 9.70663 13.2532C9.40802 13.0611 9.34776 12.67 9.52674 12.3714C9.69938 12.0832 10.0669 11.9437 10.3686 12.1C10.8209 12.3352 11.2604 12.5971 11.694 12.8658C11.883 12.9831 11.9582 13.1857 11.9569 13.4104Z" fill="#EC9E0C"/>
<path d="M11.9557 22.9796C11.9493 23.1463 11.8464 23.3416 11.6389 23.4658C11.2397 23.7045 10.8392 23.9424 10.4291 24.1622C10.0861 24.3462 9.6932 24.2211 9.51558 23.8971C9.33976 23.5768 9.43311 23.1952 9.76162 22.9936C10.1581 22.7503 10.5591 22.5124 10.9724 22.299C11.4382 22.0583 11.9625 22.39 11.9557 22.9796Z" fill="#EC9E0C"/>
<path d="M27.0576 22.8789C27.0667 22.3977 27.5679 22.0638 28.0033 22.2813C28.4524 22.5056 28.8856 22.7648 29.3079 23.0366C29.606 23.2288 29.6663 23.6203 29.4873 23.9184C29.3147 24.2061 28.9463 24.3457 28.6454 24.1894C28.1932 23.9542 27.7541 23.6923 27.3205 23.4236C27.1315 23.3062 27.0558 23.1037 27.0576 22.8789Z" fill="#EC9E0C"/>
</svg>
