<svg width="40" height="40" viewBox="0 0 40 40" fill="none" xmlns="http://www.w3.org/2000/svg">
<ellipse cx="19.7137" cy="20" rx="19.5506" ry="20" fill="#FDF5E7"/>
<path d="M7.11963 29.1506C7.11963 28.0988 7.11963 27.0473 7.11963 25.9955C7.13322 25.9603 7.15197 25.9266 7.15947 25.8905C7.37791 24.8508 8.00838 24.1983 9.02885 23.9302C9.1915 23.8875 9.23322 23.8219 9.244 23.6714C9.28385 23.1281 9.49479 22.6533 9.86979 22.26C9.97854 22.1461 9.994 22.0683 9.92697 21.9239C9.39025 20.7689 9.08369 19.5511 9.03166 18.2803C8.9215 15.608 9.72775 13.2459 11.4762 11.2111C14.6271 7.54453 20.149 6.70359 24.2374 9.27797C24.6926 9.56437 25.1196 9.89578 25.579 10.2197C25.8143 9.97875 26.0646 9.73687 26.2953 9.47719C26.3679 9.39516 26.4228 9.26625 26.4251 9.1575C26.4378 8.58563 26.4307 8.01328 26.4317 7.44141C26.4317 7.36031 26.4392 7.27922 26.4434 7.19531C26.9145 7.19531 27.3588 7.19531 27.8304 7.19531C27.8304 7.77938 27.8304 8.3475 27.8304 8.94047C28.4262 8.94047 28.9948 8.94047 29.5676 8.94047C29.5676 9.41109 29.5676 9.85641 29.5676 10.3252C29.4724 10.3252 29.3895 10.3252 29.306 10.3252C28.7417 10.3252 28.1773 10.3233 27.6129 10.3275C27.5323 10.328 27.4278 10.3331 27.3757 10.3814C27.0879 10.6486 26.8132 10.9294 26.5306 11.2087C26.6904 11.4122 26.8381 11.5898 26.9754 11.7759C28.5776 13.9467 29.2109 16.3734 28.8888 19.0505C28.767 20.063 28.4801 21.0281 28.0596 21.9562C28.0301 22.0219 28.031 22.1475 28.0737 22.1925C28.4848 22.6247 28.7135 23.1347 28.7581 23.7267C28.767 23.8439 28.8068 23.8908 28.9306 23.9203C30.1268 24.2067 30.8698 25.1541 30.8735 26.3859C30.8759 27.2208 30.8745 28.0561 30.8735 28.8909C30.8735 28.965 30.8656 29.0386 30.8599 29.13C30.7343 29.13 30.627 29.13 30.5201 29.13C22.827 29.13 15.1343 29.13 7.44119 29.1309C7.33385 29.1314 7.2265 29.1436 7.11963 29.1506ZM22.7267 12.9956C23.3295 12.3923 23.9182 11.8036 24.5121 11.2092C24.5121 11.2088 24.5018 11.1877 24.4859 11.1736C24.4217 11.1178 24.3574 11.062 24.2899 11.0105C22.1988 9.41391 19.8495 8.8425 17.2779 9.35812C11.9098 10.4339 8.93885 16.2244 11.141 21.248C11.2324 21.4566 11.3229 21.5859 11.5732 21.5419C11.6763 21.5236 11.7893 21.5456 11.8953 21.5644C12.9888 21.7598 13.7468 22.6036 13.8537 23.7314C13.8593 23.7919 13.9076 23.8814 13.9568 23.8992C14.194 23.9855 14.4382 24.052 14.7017 24.1317C14.8906 23.6095 15.2238 23.1792 15.6987 22.8572C12.6209 20.858 12.1657 16.7564 14.1701 14.1216C16.1285 11.5477 19.9259 10.837 22.7267 12.9956ZM23.3023 24.1355C23.5357 24.0591 23.7504 23.9705 23.9735 23.9217C24.1123 23.8917 24.1385 23.8327 24.1474 23.7066C24.2328 22.4855 25.2485 21.5325 26.4687 21.5438C26.6674 21.5456 26.7532 21.4777 26.8245 21.3098C27.9106 18.7612 27.8478 16.2473 26.5943 13.7728C26.3117 13.215 25.9601 12.6998 25.5715 12.2564C24.9635 12.8573 24.3678 13.4456 23.764 14.0423C24.8229 15.4373 25.2438 17.0203 24.9588 18.7627C24.6743 20.505 23.742 21.8508 22.2931 22.8506C22.8476 23.2828 22.9798 23.452 23.3023 24.1355ZM18.177 20.2641C18.0724 20.22 17.9862 20.1863 17.9023 20.1478C16.8096 19.6453 16.189 18.4439 16.422 17.2819C16.7628 15.5817 18.5492 14.6756 20.126 15.4008C20.1917 15.4308 20.3121 15.4556 20.3478 15.4214C20.8179 14.9662 21.2773 14.5003 21.7404 14.0353C20.6145 13.1166 18.7034 12.7678 17.0412 13.5417C15.4788 14.2692 14.2067 15.9581 14.3543 18.1252C14.4809 19.987 15.7582 21.368 16.7534 21.8147C17.1626 20.9161 17.2165 20.8575 18.177 20.2641ZM15.9696 27.7242C18.0063 27.7242 20.0042 27.7242 22.0095 27.7242C22.0095 26.7534 22.0353 25.7958 21.9987 24.8405C21.9795 24.345 21.4868 23.9203 20.9876 23.8753C20.9126 23.8687 20.809 23.9152 20.756 23.9723C19.7567 25.0481 18.2318 25.0491 17.239 23.9761C17.1804 23.9128 17.051 23.8702 16.9648 23.8833C16.3915 23.9709 15.987 24.4364 15.9738 25.0214C15.9631 25.5 15.9706 25.9795 15.9701 26.4581C15.9692 26.8744 15.9696 27.2906 15.9696 27.7242ZM22.7281 15.0187C22.2837 15.4636 21.8571 15.9 21.4184 16.3228C21.3012 16.4358 21.2998 16.5178 21.3649 16.658C22.0001 18.0206 21.3832 19.6055 19.9976 20.1905C19.9404 20.2144 19.8832 20.2383 19.7928 20.2758C20.5367 20.5866 21.0012 21.1045 21.2342 21.8297C23.7467 20.5327 24.3856 17.1375 22.7281 15.0187ZM14.5699 27.7261C14.5699 27.2517 14.5938 26.8022 14.5638 26.3564C14.5259 25.7864 14.134 25.3678 13.5856 25.2783C13.4937 25.2633 13.3554 25.3097 13.2912 25.3772C12.2848 26.4394 10.781 26.4366 9.78822 25.3688C9.7315 25.3078 9.61666 25.2605 9.53604 25.2698C9.06682 25.3228 8.62338 25.6702 8.56807 26.1375C8.50666 26.6578 8.554 27.1912 8.554 27.7256C10.5443 27.7261 12.544 27.7261 14.5699 27.7261ZM29.4823 27.7256C29.4823 27.33 29.4828 26.9522 29.4818 26.5739C29.4818 26.4891 29.4846 26.4033 29.4757 26.3189C29.4195 25.7812 28.9929 25.335 28.4581 25.2694C28.3821 25.26 28.2734 25.2966 28.2209 25.3509C27.162 26.4469 25.7393 26.4506 24.6884 25.3594C24.6345 25.3031 24.5295 25.26 24.4535 25.2675C23.9918 25.3134 23.5292 25.6697 23.4757 26.1277C23.4148 26.6494 23.4617 27.1833 23.4617 27.7252C25.4487 27.7256 27.4479 27.7256 29.4823 27.7256ZM19.0076 18.9938C19.6807 18.99 20.2245 18.443 20.2249 17.7684C20.2254 17.0887 19.6634 16.5295 18.986 16.5361C18.3162 16.5427 17.7701 17.0948 17.7692 17.7666C17.7682 18.4509 18.3199 18.9975 19.0076 18.9938ZM18.9912 21.5377C18.4765 21.5395 18.0654 21.9562 18.071 22.47C18.0767 22.9678 18.492 23.3827 18.9907 23.3873C19.4956 23.392 19.9231 22.9664 19.9231 22.4592C19.9226 21.9464 19.5078 21.5353 18.9912 21.5377ZM11.5395 22.9294C11.0257 22.9308 10.6095 23.3498 10.6156 23.8598C10.6217 24.3591 11.0351 24.7734 11.5334 24.7795C12.042 24.7861 12.4615 24.3684 12.4629 23.8542C12.4643 23.3353 12.0574 22.928 11.5395 22.9294ZM26.4532 22.9294C25.9353 22.928 25.5293 23.3353 25.5307 23.8547C25.5321 24.3689 25.9517 24.7861 26.4603 24.7795C26.9576 24.7725 27.3724 24.3572 27.3781 23.8589C27.3842 23.3503 26.9665 22.9303 26.4532 22.9294Z" fill="#EC9E0C"/>
</svg>
