<svg width="41" height="38" viewBox="0 0 41 38" fill="none" xmlns="http://www.w3.org/2000/svg">
<path d="M20.3601 37.5C9.70445 37.5 1.10012 29.199 1.10012 19C1.10012 8.80103 9.70445 0.5 20.3601 0.5C31.0158 0.5 39.6201 8.80103 39.6201 19C39.6201 29.199 31.0158 37.5 20.3601 37.5Z" fill="white" stroke="#D9D9DF"/>
<path fill-rule="evenodd" clip-rule="evenodd" d="M15.4646 19.7071C15.0585 19.3166 15.0585 18.6834 15.4646 18.2929L21.7046 12.2929C22.1107 11.9024 22.7692 11.9024 23.1754 12.2929C23.5815 12.6834 23.5815 13.3166 23.1754 13.7071L17.6707 19L23.1754 24.2929C23.5815 24.6834 23.5815 25.3166 23.1754 25.7071C22.7692 26.0976 22.1107 26.0976 21.7046 25.7071L15.4646 19.7071Z" fill="#01021D"/>
</svg>
