<svg width="32" height="31" viewBox="0 0 32 31" fill="none" xmlns="http://www.w3.org/2000/svg">
<path d="M22.4835 27.3352C22.1086 26.1887 21.7337 25.0427 21.3506 23.8719C21.7923 23.7261 22.2191 23.5852 22.6666 23.4374C23.0478 24.5985 23.4237 25.7421 23.8044 26.9017C23.3821 27.0509 22.9795 27.1928 22.5765 27.3352C22.5451 27.3352 22.5145 27.3352 22.4835 27.3352Z" fill="#EC9E0C"/>
<path d="M20.6881 21.7494C20.6033 22.9182 20.0821 23.7973 19.0146 24.2609C17.8138 24.7821 16.7428 24.4881 15.8182 23.5857C14.9042 24.4735 13.8502 24.7763 12.66 24.2769C11.5678 23.8186 11.0345 22.9337 10.9507 21.8099C10.523 21.6767 10.0875 21.5929 9.69906 21.4103C8.64603 20.9153 8.04105 19.7281 8.21881 18.5763C8.24739 18.3898 8.21542 18.2774 8.06091 18.1495C6.3622 16.7448 6.38255 14.166 8.10014 12.7836C8.2222 12.6858 8.24642 12.6 8.22608 12.4547C7.99261 10.7754 9.143 9.35763 10.8286 9.23896C10.8654 9.23654 10.9023 9.23266 10.9371 9.22927C11.0602 6.63932 14.0919 5.52574 15.8225 7.37702C16.737 6.48577 17.7998 6.18837 18.9952 6.69841C20.0758 7.15954 20.6014 8.04207 20.6876 9.21038C20.8988 9.24671 21.1197 9.27044 21.3333 9.32324C22.7331 9.66909 23.6253 10.99 23.4137 12.4106C23.3865 12.5918 23.4311 12.6959 23.573 12.8146C25.2833 14.2459 25.2548 16.7812 23.526 18.2043C23.4602 18.2585 23.3996 18.3844 23.4146 18.4624C23.7014 19.9746 22.6004 21.6404 20.7627 21.7315C20.7409 21.7329 20.7196 21.7416 20.6881 21.7494ZM12.8063 20.3423C12.678 20.6751 12.5453 20.9628 12.4581 21.2641C12.3951 21.4806 12.3423 21.7218 12.3733 21.9398C12.4765 22.6644 13.1226 23.1686 13.8279 23.1158C14.5651 23.0611 15.1158 22.4668 15.1221 21.7106C15.127 21.1091 15.1231 20.507 15.1231 19.9054C15.1231 19.824 15.1231 19.7426 15.1231 19.6603C15.6002 19.6603 16.0449 19.6603 16.5118 19.6603C16.5118 19.7465 16.5118 19.8216 16.5118 19.8967C16.5118 20.4983 16.5094 21.1003 16.5128 21.7019C16.5157 22.2963 16.8421 22.8015 17.3735 23.0102C17.9204 23.2253 18.4222 23.126 18.8538 22.7317C19.2756 22.3471 19.3827 21.7983 19.1676 21.2277C19.0596 20.941 18.9501 20.6552 18.832 20.3433C18.9453 20.3433 19.0286 20.3433 19.1119 20.3433C19.652 20.3423 20.1926 20.3554 20.7317 20.3374C21.4534 20.3137 22.0303 19.7291 22.0623 19.0166C22.0942 18.3157 21.5537 17.6714 20.8523 17.5755C20.149 17.4791 19.4834 17.9495 19.3226 18.6581C19.3013 18.7531 19.2863 18.849 19.2689 18.9429C18.8102 18.9429 18.3655 18.9429 17.8957 18.9429C17.9378 17.9456 18.3364 17.1449 19.1759 16.631C20.4498 15.8516 21.6418 16.0774 22.7229 17.049C23.6956 16.2067 23.6878 14.6548 22.7152 13.9229C21.3807 14.9294 20.2754 15.0534 19.1565 14.3341C18.3301 13.8032 17.823 12.7284 17.9344 12.0222C18.3795 12.0222 18.8247 12.0222 19.2747 12.0222C19.2873 12.106 19.295 12.1815 19.3095 12.2556C19.451 12.9667 20.0671 13.4462 20.7762 13.3973C21.464 13.3499 22.0298 12.7686 22.0623 12.0764C22.0952 11.3717 21.5953 10.757 20.8809 10.6436C20.692 10.6136 20.4963 10.6252 20.304 10.6243C19.822 10.6219 19.3401 10.6233 18.829 10.6233C18.955 10.2968 19.0809 10.0072 19.1759 9.70832C19.2354 9.52087 19.2882 9.31646 19.2766 9.12368C19.2325 8.39227 18.5932 7.82991 17.8598 7.8488C17.1289 7.86769 16.5278 8.46541 16.5142 9.20166C16.504 9.73399 16.5118 10.2663 16.5118 10.7986C16.5118 10.9658 16.5118 11.1334 16.5118 11.3014C16.0352 11.3014 15.5852 11.3014 15.1231 11.3014C15.1231 10.5996 15.1289 9.91369 15.1216 9.22782C15.1134 8.4906 14.5477 7.89676 13.824 7.85074C12.831 7.78729 12.1045 8.75265 12.446 9.68507C12.5583 9.99216 12.6785 10.2959 12.8034 10.6233C12.4585 10.6233 12.1505 10.6228 11.8424 10.6233C11.5261 10.6238 11.2089 10.6093 10.894 10.6296C10.3404 10.665 9.92866 10.9377 9.69906 11.4458C9.46414 11.9645 9.5368 12.463 9.89863 12.8965C10.2532 13.3218 10.7201 13.4826 11.2675 13.361C11.8836 13.2244 12.243 12.7841 12.3641 12.0246C12.8136 12.0246 13.265 12.0246 13.715 12.0246C13.8037 12.8994 13.2006 13.9645 12.2997 14.4349C11.0621 15.081 9.93495 14.8437 8.92455 13.9224C7.94805 14.6334 7.94902 16.3384 8.926 17.0447C9.92672 16.1229 11.048 15.8923 12.2803 16.5191C13.187 16.9807 13.808 18.0662 13.714 18.942C13.2641 18.942 12.8131 18.942 12.3631 18.942C12.3433 18.8335 12.3297 18.7346 12.3069 18.6383C12.1757 18.0774 11.7257 17.6647 11.1546 17.5775C10.617 17.4956 10.0633 17.7596 9.77414 18.2362C9.21905 19.1502 9.85988 20.3142 10.941 20.3394C11.5499 20.3539 12.1587 20.3423 12.8063 20.3423Z" fill="#EC9E0C"/>
<path d="M8.96343 7.54415C8.57932 6.37923 8.20296 5.2361 7.81934 4.07312C8.26351 3.92635 8.69073 3.78491 9.13684 3.63766C9.51804 4.79435 9.89488 5.93796 10.2804 7.10821C9.8387 7.25449 9.41293 7.39545 8.96343 7.54415Z" fill="#EC9E0C"/>
<path d="M8.9596 23.4171C9.40764 23.5639 9.82857 23.7019 10.2781 23.8492C9.89832 25.0059 9.52293 26.149 9.14221 27.3091C8.69997 27.1642 8.27808 27.0267 7.82471 26.878C8.20155 25.729 8.57403 24.5927 8.9596 23.4171Z" fill="#EC9E0C"/>
<path d="M22.672 7.53447C22.2273 7.3877 21.8054 7.24868 21.3545 7.09998C21.7328 5.95104 22.1067 4.81567 22.4874 3.66092C22.9326 3.80768 23.354 3.94622 23.8049 4.09492C23.4247 5.24822 23.0508 6.38359 22.672 7.53447Z" fill="#EC9E0C"/>
<path d="M4.4917 22.0095C5.48903 21.6772 6.45003 21.3571 7.43428 21.0291C7.58056 21.467 7.72296 21.8928 7.87506 22.3471C6.89081 22.6746 5.92496 22.9957 4.93151 23.3261C4.78378 22.8843 4.64186 22.4595 4.4917 22.0095Z" fill="#EC9E0C"/>
<path d="M26.7082 7.65457C26.8554 8.09874 26.9969 8.52451 27.1446 8.9711C26.1594 9.29999 25.1998 9.62017 24.2059 9.95196C24.0596 9.51748 23.9162 9.09317 23.7627 8.63785C24.7455 8.30993 25.7171 7.9854 26.7082 7.65457Z" fill="#EC9E0C"/>
<path d="M7.43869 9.94229C6.44766 9.61195 5.48714 9.29129 4.49805 8.96143C4.64433 8.51968 4.78528 8.0944 4.93398 7.64539C5.91872 7.97331 6.88456 8.29445 7.87753 8.62528C7.72834 9.07332 7.58448 9.5049 7.43869 9.94229Z" fill="#EC9E0C"/>
<path d="M23.7598 22.3258C23.9075 21.8826 24.048 21.4617 24.1981 21.0107C25.1833 21.3387 26.1502 21.6608 27.1402 21.9901C26.9944 22.4314 26.8549 22.8533 26.7048 23.3067C25.721 22.9792 24.7484 22.6552 23.7598 22.3258Z" fill="#EC9E0C"/>
<path d="M16.5022 12.7245C16.5022 14.571 16.5022 16.4024 16.5022 18.2474C16.0493 18.2474 15.6052 18.2474 15.1421 18.2474C15.1421 16.4159 15.1421 14.5787 15.1421 12.7245C15.5829 12.7245 16.0324 12.7245 16.5022 12.7245Z" fill="#EC9E0C"/>
</svg>
