<svg width="82" height="14" viewBox="0 0 82 14" fill="none" xmlns="http://www.w3.org/2000/svg">
<path fill-rule="evenodd" clip-rule="evenodd" d="M74.4546 10.9367L71.2905 13.2926L71.3126 9.53971L67.3449 8.7245L70.5366 6.40059L68.7531 3.02824L72.7109 3.88321L74.4546 0.493164L76.1982 3.88321L80.156 3.02824L78.3725 6.40059L81.5642 8.7245L77.5965 9.53971L77.6186 13.2926L74.4546 10.9367Z" fill="#EC9E0C"/>
<path fill-rule="evenodd" clip-rule="evenodd" d="M57.7856 10.9367L54.6215 13.2926L54.6436 9.53971L50.676 8.7245L53.8676 6.40059L52.0841 3.02824L56.0419 3.88321L57.7856 0.493164L59.5293 3.88321L63.4871 3.02824L61.7036 6.40059L64.8952 8.7245L60.9276 9.53971L60.9497 13.2926L57.7856 10.9367Z" fill="#EC9E0C"/>
<path fill-rule="evenodd" clip-rule="evenodd" d="M41.1176 10.9367L37.9536 13.2926L37.9757 9.53971L34.008 8.7245L37.1997 6.40059L35.4162 3.02824L39.374 3.88321L41.1176 0.493164L42.8613 3.88321L46.8191 3.02824L45.0356 6.40059L48.2272 8.7245L44.2596 9.53971L44.2817 13.2926L41.1176 10.9367Z" fill="#EC9E0C"/>
<path fill-rule="evenodd" clip-rule="evenodd" d="M24.4487 10.9367L21.2846 13.2926L21.3067 9.53971L17.3391 8.7245L20.5307 6.40059L18.7472 3.02824L22.705 3.88321L24.4487 0.493164L26.1924 3.88321L30.1502 3.02824L28.3667 6.40059L31.5583 8.7245L27.5907 9.53971L27.6128 13.2926L24.4487 10.9367Z" fill="#EC9E0C"/>
<path fill-rule="evenodd" clip-rule="evenodd" d="M7.78073 10.9367L4.61665 13.2926L4.63874 9.53971L0.671118 8.7245L3.86274 6.40059L2.07926 3.02824L6.03706 3.88321L7.78073 0.493164L9.52439 3.88321L13.4822 3.02824L11.6987 6.40059L14.8903 8.7245L10.9227 9.53971L10.9448 13.2926L7.78073 10.9367Z" fill="#EC9E0C"/>
</svg>
