<svg width="82" height="15" viewBox="0 0 82 15" fill="none" xmlns="http://www.w3.org/2000/svg">
<path fill-rule="evenodd" clip-rule="evenodd" d="M74.4546 11.4128L71.2905 13.7686L71.3126 10.0158L67.3449 9.20058L70.5366 6.87666L68.7531 3.50431L72.7109 4.35929L74.4546 0.969238L76.1982 4.35929L80.156 3.50431L78.3725 6.87666L81.5642 9.20058L77.5965 10.0158L77.6186 13.7686L74.4546 11.4128Z" fill="#EC9E0C"/>
<path fill-rule="evenodd" clip-rule="evenodd" d="M57.7856 11.4128L54.6215 13.7686L54.6436 10.0158L50.676 9.20058L53.8676 6.87666L52.0841 3.50431L56.0419 4.35929L57.7856 0.969238L59.5293 4.35929L63.4871 3.50431L61.7036 6.87666L64.8952 9.20058L60.9276 10.0158L60.9497 13.7686L57.7856 11.4128Z" fill="#EC9E0C"/>
<path fill-rule="evenodd" clip-rule="evenodd" d="M41.1176 11.4128L37.9536 13.7686L37.9757 10.0158L34.008 9.20058L37.1997 6.87666L35.4162 3.50431L39.374 4.35929L41.1176 0.969238L42.8613 4.35929L46.8191 3.50431L45.0356 6.87666L48.2272 9.20058L44.2596 10.0158L44.2817 13.7686L41.1176 11.4128Z" fill="#EC9E0C"/>
<path fill-rule="evenodd" clip-rule="evenodd" d="M24.4487 11.4128L21.2846 13.7686L21.3067 10.0158L17.3391 9.20058L20.5307 6.87666L18.7472 3.50431L22.705 4.35929L24.4487 0.969238L26.1924 4.35929L30.1502 3.50431L28.3667 6.87666L31.5583 9.20058L27.5907 10.0158L27.6128 13.7686L24.4487 11.4128Z" fill="#EC9E0C"/>
<path fill-rule="evenodd" clip-rule="evenodd" d="M7.78073 11.4128L4.61665 13.7686L4.63874 10.0158L0.671118 9.20058L3.86274 6.87666L2.07926 3.50431L6.03706 4.35929L7.78073 0.969238L9.52439 4.35929L13.4822 3.50431L11.6987 6.87666L14.8903 9.20058L10.9227 10.0158L10.9448 13.7686L7.78073 11.4128Z" fill="#EC9E0C"/>
</svg>
