<svg width="82" height="14" viewBox="0 0 82 14" fill="none" xmlns="http://www.w3.org/2000/svg">
<path fill-rule="evenodd" clip-rule="evenodd" d="M74.4546 10.4609L71.2905 12.8167L71.3126 9.06388L67.3449 8.24867L70.5366 5.92476L68.7531 2.55241L72.7109 3.40738L74.4546 0.017334L76.1982 3.40738L80.156 2.55241L78.3725 5.92476L81.5642 8.24867L77.5965 9.06388L77.6186 12.8167L74.4546 10.4609Z" fill="#EC9E0C"/>
<path fill-rule="evenodd" clip-rule="evenodd" d="M57.7856 10.4609L54.6215 12.8167L54.6436 9.06388L50.676 8.24867L53.8676 5.92476L52.0841 2.55241L56.0419 3.40738L57.7856 0.017334L59.5293 3.40738L63.4871 2.55241L61.7036 5.92476L64.8952 8.24867L60.9276 9.06388L60.9497 12.8167L57.7856 10.4609Z" fill="#EC9E0C"/>
<path fill-rule="evenodd" clip-rule="evenodd" d="M41.1176 10.4609L37.9536 12.8167L37.9757 9.06388L34.008 8.24867L37.1997 5.92476L35.4162 2.55241L39.374 3.40738L41.1176 0.017334L42.8613 3.40738L46.8191 2.55241L45.0356 5.92476L48.2272 8.24867L44.2596 9.06388L44.2817 12.8167L41.1176 10.4609Z" fill="#EC9E0C"/>
<path fill-rule="evenodd" clip-rule="evenodd" d="M24.4487 10.4609L21.2846 12.8167L21.3067 9.06388L17.3391 8.24867L20.5307 5.92476L18.7472 2.55241L22.705 3.40738L24.4487 0.017334L26.1924 3.40738L30.1502 2.55241L28.3667 5.92476L31.5583 8.24867L27.5907 9.06388L27.6128 12.8167L24.4487 10.4609Z" fill="#EC9E0C"/>
<path fill-rule="evenodd" clip-rule="evenodd" d="M7.78073 10.4609L4.61665 12.8167L4.63874 9.06388L0.671118 8.24867L3.86274 5.92476L2.07926 2.55241L6.03706 3.40738L7.78073 0.017334L9.52439 3.40738L13.4822 2.55241L11.6987 5.92476L14.8903 8.24867L10.9227 9.06388L10.9448 12.8167L7.78073 10.4609Z" fill="#EC9E0C"/>
</svg>
