<svg width="41" height="38" viewBox="0 0 41 38" fill="none" xmlns="http://www.w3.org/2000/svg">
<path d="M20.6399 0.5C31.2956 0.5 39.8999 8.80103 39.8999 19C39.8999 29.199 31.2956 37.5 20.6399 37.5C9.98421 37.5 1.37988 29.199 1.37988 19C1.37988 8.80103 9.98421 0.5 20.6399 0.5Z" fill="white" stroke="#D9D9DF"/>
<path fill-rule="evenodd" clip-rule="evenodd" d="M25.5354 18.2929C25.9415 18.6834 25.9415 19.3166 25.5354 19.7071L19.2954 25.7071C18.8893 26.0976 18.2308 26.0976 17.8246 25.7071C17.4185 25.3166 17.4185 24.6834 17.8246 24.2929L23.3293 19L17.8246 13.7071C17.4185 13.3166 17.4185 12.6834 17.8246 12.2929C18.2308 11.9024 18.8893 11.9024 19.2954 12.2929L25.5354 18.2929Z" fill="#01021D"/>
</svg>
