<svg width="35" height="33" viewBox="0 0 35 33" fill="none" xmlns="http://www.w3.org/2000/svg">
<path d="M24.5343 2.71484H10.628C6.78784 2.71484 3.6748 5.75376 3.6748 9.50246V23.0777C3.6748 26.8264 6.78784 29.8653 10.628 29.8653H24.5343C28.3744 29.8653 31.4875 26.8264 31.4875 23.0777V9.50246C31.4875 5.75376 28.3744 2.71484 24.5343 2.71484Z" stroke="white" stroke-width="1.5893" stroke-linecap="round" stroke-linejoin="round"/>
<path d="M23.1435 15.4346C23.3151 16.5644 23.1175 17.7183 22.5786 18.7321C22.0397 19.7459 21.1871 20.568 20.142 21.0815C19.0969 21.595 17.9126 21.7737 16.7574 21.5922C15.6023 21.4108 14.5352 20.8784 13.7078 20.0708C12.8805 19.2632 12.3351 18.2214 12.1493 17.0938C11.9634 15.9662 12.1465 14.81 12.6725 13.7898C13.1985 12.7696 14.0407 11.9373 15.0792 11.4112C16.1177 10.8852 17.2997 10.6922 18.4571 10.8598C19.6376 11.0307 20.7306 11.5677 21.5745 12.3915C22.4184 13.2153 22.9685 14.2822 23.1435 15.4346Z" stroke="white" stroke-width="1.5893" stroke-linecap="round" stroke-linejoin="round"/>
<path d="M25.23 8.82373H25.2443" stroke="white" stroke-width="1.5893" stroke-linecap="round" stroke-linejoin="round"/>
</svg>
