<svg width="34" height="33" viewBox="0 0 34 33" fill="none" xmlns="http://www.w3.org/2000/svg">
<path d="M32.0994 4.07224C30.7994 4.98922 29.3601 5.69056 27.8368 6.14925C27.0192 5.20918 25.9326 4.54289 24.724 4.24048C23.5154 3.93807 22.2431 4.01414 21.0791 4.4584C19.9152 4.90266 18.9157 5.69367 18.216 6.72446C17.5162 7.75525 17.1499 8.97607 17.1666 10.2218V11.5793C14.781 11.6412 12.417 11.1121 10.2854 10.0392C8.1537 8.96622 6.32046 7.38275 4.94893 5.42977C4.94893 5.42977 -0.481159 17.6475 11.7365 23.0776C8.94077 24.9753 5.61026 25.9269 2.23389 25.7926C14.4516 32.5802 29.3843 25.7926 29.3843 10.1811C29.3831 9.80296 29.3467 9.42576 29.2757 9.05435C30.6612 7.688 31.639 5.96288 32.0994 4.07224Z" fill="white"/>
</svg>
