<svg width="35" height="33" viewBox="0 0 35 33" fill="none" xmlns="http://www.w3.org/2000/svg">
<path fill-rule="evenodd" clip-rule="evenodd" d="M31.0744 7.0041C31.5481 7.48081 31.8846 8.07111 32.0498 8.71538C32.4909 11.1029 32.7051 13.525 32.6895 15.951C32.6983 18.3407 32.4841 20.7262 32.0498 23.078C31.8846 23.7222 31.5481 24.3125 31.0744 24.7893C30.6008 25.266 30.0066 25.6122 29.3519 25.793C26.96 26.4175 17.3925 26.4175 17.3925 26.4175C17.3925 26.4175 7.82493 26.4175 5.43304 25.793C4.79171 25.6217 4.20648 25.2918 3.73389 24.8353C3.2613 24.3787 2.91733 23.8108 2.73521 23.1866C2.29406 20.7991 2.07992 18.3769 2.09552 15.951C2.08333 13.5432 2.29746 11.1393 2.73521 8.76968C2.9004 8.12542 3.23684 7.53511 3.71053 7.0584C4.18422 6.58168 4.7784 6.23544 5.43304 6.05464C7.82493 5.43018 17.3925 5.43018 17.3925 5.43018C17.3925 5.43018 26.96 5.43018 29.3519 6.00034C30.0066 6.18114 30.6008 6.52738 31.0744 7.0041ZM22.2608 15.9505L14.2646 20.3896V11.5114L22.2608 15.9505Z" fill="white"/>
</svg>
